<svg id="Layer_1" data-name="Layer 1" xmlns="http://www.w3.org/2000/svg" width="6.64in" height="4.36in" viewBox="0 0 477.87 314.27"><path d="M196.71,430V411.46h7.12v18.3c0,5.27,2.63,8,7,8s7-2.63,7-7.76V411.46h7.12v18.26c0,9.8-5.5,14.61-14.19,14.61S196.71,439.47,196.71,430Z" transform="translate(-121.06 -130.06)" fill="#003c5a"/><path d="M236,411.46h6.56l15.17,19.92V411.46h7v32.36h-6.05L243,423.25v20.57h-7Z" transform="translate(-121.06 -130.06)" fill="#003c5a"/><path d="M277,411.46h7.12v32.36H277Z" transform="translate(-121.06 -130.06)" fill="#003c5a"/><path d="M293.87,411.46h7.86l8.45,22.79,8.46-22.79h7.68l-13.09,32.59H307Z" transform="translate(-121.06 -130.06)" fill="#003c5a"/><path d="M335.12,411.46h24.41v6.33H342.19v6.57h15.26v6.33H342.19v6.79h17.57v6.34H335.12Z" transform="translate(-121.06 -130.06)" fill="#003c5a"/><path d="M370.9,411.46h14.79c4.11,0,7.3,1.15,9.43,3.28a10.17,10.17,0,0,1,2.77,7.4v.09a10.06,10.06,0,0,1-6.93,10l7.9,11.56h-8.32l-6.93-10.36H378v10.36H370.9Zm14.33,15.72c3.46,0,5.45-1.85,5.45-4.58v-.09c0-3.05-2.13-4.63-5.59-4.63H378v9.3Z" transform="translate(-121.06 -130.06)" fill="#003c5a"/><path d="M406.9,439.1l4.21-5c2.91,2.41,6,3.93,9.66,3.93,2.91,0,4.67-1.15,4.67-3.05v-.09c0-1.8-1.11-2.73-6.52-4.12-6.52-1.66-10.73-3.46-10.73-9.89v-.09c0-5.87,4.72-9.76,11.33-9.76a18.7,18.7,0,0,1,12,4.12l-3.7,5.36c-2.87-2-5.68-3.19-8.41-3.19s-4.16,1.25-4.16,2.82v.09c0,2.13,1.38,2.82,7,4.26,6.56,1.71,10.26,4.07,10.26,9.71v.09c0,6.42-4.9,10-11.88,10A20.58,20.58,0,0,1,406.9,439.1Z" transform="translate(-121.06 -130.06)" fill="#003c5a"/><path d="M443.5,411.46h7.12v32.36H443.5Z" transform="translate(-121.06 -130.06)" fill="#003c5a"/><path d="M469.72,418h-9.85v-6.56h26.82V418h-9.85v25.8h-7.12Z" transform="translate(-121.06 -130.06)" fill="#003c5a"/><path d="M503.74,431.06l-12.44-19.6h8.32l7.72,13,7.86-13h8.09l-12.43,19.46v12.9h-7.12Z" transform="translate(-121.06 -130.06)" fill="#003c5a"/><path d="M121.06,339.6h10.51l11.64,18.73,11.64-18.73h10.51v44.3h-9.68V355L143.21,373.9H143l-12.34-18.73V383.9h-9.56Z" transform="translate(-121.06 -130.06)" fill="#003c5a"/><path d="M179.43,339.6h33.41v8.67H189.11v9H210v8.66H189.11v9.31h24v8.67H179.43Z" transform="translate(-121.06 -130.06)" fill="#003c5a"/><path d="M235.56,348.59H222.08v-9h36.7v9H245.3V383.9h-9.74Z" transform="translate(-121.06 -130.06)" fill="#003c5a"/><path d="M267.9,339.6h20.25c5.63,0,10,1.58,12.91,4.49a13.94,13.94,0,0,1,3.79,10.13v.13c0,7.15-3.86,11.64-9.49,13.73l10.82,15.82H294.79l-9.49-14.18h-7.66V383.9H267.9Zm19.61,21.52c4.75,0,7.47-2.54,7.47-6.27v-.12c0-4.18-2.91-6.33-7.66-6.33h-9.68v12.72Z" transform="translate(-121.06 -130.06)" fill="#003c5a"/><path d="M313,361.88v-.13c0-12.59,9.93-22.91,23.6-22.91S360,349,360,361.62v.13c0,12.59-9.93,22.9-23.6,22.9S313,374.47,313,361.88Zm36.89,0v-.13c0-7.59-5.57-13.92-13.42-13.92s-13.29,6.2-13.29,13.79v.13c0,7.59,5.57,13.92,13.42,13.92S349.85,369.47,349.85,361.88Z" transform="translate(-121.06 -130.06)" fill="#003c5a"/><path d="M392.46,377.44l5.76-6.9c4,3.29,8.17,5.38,13.23,5.38,4,0,6.39-1.58,6.39-4.17v-.13c0-2.47-1.52-3.73-8.92-5.63-8.92-2.28-14.68-4.75-14.68-13.54v-.13c0-8,6.45-13.35,15.5-13.35a25.62,25.62,0,0,1,16.45,5.63l-5.06,7.34c-3.92-2.72-7.78-4.37-11.52-4.37s-5.69,1.71-5.69,3.86v.13c0,2.91,1.9,3.86,9.55,5.82,9,2.34,14,5.57,14,13.29v.13c0,8.79-6.71,13.73-16.26,13.73A28.19,28.19,0,0,1,392.46,377.44Z" transform="translate(-121.06 -130.06)" fill="#003c5a"/><path d="M448.21,348.59H434.73v-9h36.7v9H458V383.9h-9.75Z" transform="translate(-121.06 -130.06)" fill="#003c5a"/><path d="M491.11,339.29h9l19,44.61H508.89L504.84,374H486.11l-4.05,9.94h-9.93Zm10.25,26.07L495.48,351l-5.89,14.37Z" transform="translate(-121.06 -130.06)" fill="#003c5a"/><path d="M532.63,348.59H519.15v-9h36.7v9H542.38V383.9h-9.75Z" transform="translate(-121.06 -130.06)" fill="#003c5a"/><path d="M565.21,339.6h33.41v8.67H574.89v9h20.88v8.66H574.89v9.31h24.05v8.67H565.21Z" transform="translate(-121.06 -130.06)" fill="#003c5a"/><polygon points="154.62 72.72 154.62 98.09 144.4 93.78 144.4 170.58 121.02 170.58 121.02 58.55 154.62 72.72" fill="#6ebe4a"/><polygon points="238.5 108.08 238.5 133.45 211.6 122.11 211.6 96.74 238.5 108.08" fill="#6ebe4a"/><polygon points="238.5 35.36 238.5 60.73 178 35.23 178 170.58 154.62 170.58 154.62 0 238.5 35.36" fill="#f19124"/><polygon points="238.5 71.78 238.5 97.15 211.6 85.81 211.6 170.58 188.23 170.58 188.23 50.59 238.5 71.78" fill="#3d98b1"/><polygon points="289.64 13.81 289.64 50.32 266.26 60.07 266.26 49.03 238.5 60.73 238.5 35.36 289.64 13.81" fill="#dc4a42"/><polygon points="289.64 111.89 289.64 170.58 266.26 170.58 266.26 121.75 289.64 111.89" fill="#dc4a42"/><polygon points="323.24 72.36 323.24 170.58 299.87 170.58 299.87 107.58 238.5 133.45 238.5 108.08 238.51 108.08 323.24 72.36" fill="#006937"/><polygon points="356.85 21.87 356.85 170.57 333.47 170.57 333.47 57.1 238.5 97.14 238.5 71.77 356.85 21.87" fill="#003c5a"/></svg>